<svg width="266" height="266" viewBox="0 0 266 266" fill="none" xmlns="http://www.w3.org/2000/svg">
<circle cx="132.721" cy="132.721" r="132.721" fill="#56BCF9"/>
<g clip-path="url(#clip0)">
<path d="M84.4498 225.7C119.467 226.62 123.645 197.028 130.643 175.714C23.5918 169.259 45.0348 224.666 84.4498 225.7ZM83.7746 209.593C71.1557 210.228 64.7299 194.305 100.737 193.278C100.737 193.278 96.6051 208.948 83.7746 209.593Z" fill="white"/>
<path d="M171.555 218.519C191.691 212.289 210.243 166.48 96.1923 176.056C95.6785 176.096 95.1813 176.256 94.7406 176.523C94.2998 176.79 93.9278 177.157 93.6543 177.594C91.0051 181.876 88.177 194.077 92.1334 193.781C194.189 186.172 171.738 218.17 171.555 218.519" fill="white"/>
<path d="M120.185 174.79L114.371 192.681C152.198 191.901 166.622 198.156 171.525 204.708L179.284 186.152C170.386 179.279 152.423 174.232 120.185 174.79Z" fill="url(#paint0_linear)"/>
<path d="M112.877 190.933L117.05 175.21C79.2149 174.753 60.6557 183.137 54.5645 193.198L73.8237 202.978C74.2704 198.699 81.3582 193.832 100.737 193.279C100.737 193.279 101.723 193.242 101.657 193.459L112.877 190.933Z" fill="url(#paint1_linear)"/>
<path d="M160.369 80.0336C162.502 73.6183 140.353 78.4333 139.596 81.0135C135.052 96.5228 104.038 184.552 99.8178 195.911C97.8398 201.236 120.422 204.849 124.096 196.523C126.802 190.393 151.009 108.171 160.369 80.0336Z" fill="white"/>
<path d="M184.892 39.8537C149.718 37.6168 145.222 64.0189 138.147 87.5892L137.026 89.6629C234.304 96.4796 224.284 42.359 184.892 39.8537ZM162.749 72.6044C167.512 55.293 181.16 55.8135 181.16 55.8135C195.829 54.6817 196.479 73.2881 162.749 72.6044Z" fill="white"/>
<path d="M120.937 136.142L141.957 139.238C148.156 118.878 154.61 97.7546 158.927 84.4285L138.921 83.2339C136.059 92.4027 128.61 114.109 120.937 136.142Z" fill="url(#paint2_linear)"/>
<path d="M140.413 79.8171H161.902V75.5618C161.469 75.4894 163.093 73.9026 162.749 72.6044C165.924 61.0627 173.049 57.4475 177.445 56.3209L176.88 39.8613C152.281 41.6625 146.004 60.5438 140.413 79.8171Z" fill="url(#paint3_linear)"/>
<path d="M97.9925 40.6575C78.2446 44.2935 55.2291 93.6289 157.681 90.2041C159.886 90.1301 164.716 79.2462 164.716 74.2995C164.716 72.8928 165.374 72.6672 164.247 72.6404C76.008 70.5487 98.0081 40.6411 97.9925 40.6575Z" fill="white"/>
</g>
<defs>
<linearGradient id="paint0_linear" x1="147.315" y1="187.993" x2="111.851" y2="178.655" gradientUnits="userSpaceOnUse">
<stop stop-color="white"/>
<stop offset="0.16" stop-color="#F8F8F8"/>
<stop offset="0.4" stop-color="#E5E5E5"/>
<stop offset="0.69" stop-color="#C5C6C6"/>
<stop offset="1" stop-color="#9A9B9B"/>
</linearGradient>
<linearGradient id="paint1_linear" x1="83.4543" y1="189.346" x2="141.8" y2="187.622" gradientUnits="userSpaceOnUse">
<stop stop-color="white"/>
<stop offset="0.16" stop-color="#F8F8F8"/>
<stop offset="0.41" stop-color="#E4E5E5"/>
<stop offset="0.69" stop-color="#C4C5C5"/>
<stop offset="1" stop-color="#9A9B9B"/>
</linearGradient>
<linearGradient id="paint2_linear" x1="141.577" y1="108.269" x2="154.404" y2="74.8139" gradientUnits="userSpaceOnUse">
<stop stop-color="white"/>
<stop offset="0.16" stop-color="#F8F8F8"/>
<stop offset="0.41" stop-color="#E4E4E4"/>
<stop offset="0.7" stop-color="#C3C4C4"/>
<stop offset="1" stop-color="#9A9B9B"/>
</linearGradient>
<linearGradient id="paint3_linear" x1="162.878" y1="55.6167" x2="149.814" y2="96.0268" gradientUnits="userSpaceOnUse">
<stop stop-color="white"/>
<stop offset="0.16" stop-color="#F8F8F8"/>
<stop offset="0.41" stop-color="#E4E4E4"/>
<stop offset="0.7" stop-color="#C3C4C4"/>
<stop offset="1" stop-color="#9A9B9B"/>
</linearGradient>
<clipPath id="clip0">
<rect width="161" height="186" fill="white" transform="translate(52.2207 39.7209)"/>
</clipPath>
</defs>
</svg>
